<?xml version="1.0" encoding="UTF-8"?>
<svg xmlns="http://www.w3.org/2000/svg" xmlns:xlink="http://www.w3.org/1999/xlink" width="757.45pt" height="336.257pt" viewBox="0 0 757.45 336.257">
<path fill-rule="nonzero" fill="rgb(100%, 100%, 100%)" fill-opacity="1" d="M 286.878906 199.921875 C 288.582031 202.738281 290.714844 204.914062 293.277344 206.453125 C 295.835938 207.988281 298.738281 208.753906 301.980469 208.753906 C 304.539062 208.753906 306.671875 208.242188 308.378906 207.21875 C 310.085938 206.195312 310.941406 204.785156 310.941406 202.992188 C 310.941406 201.035156 310.148438 199.601562 308.574219 198.707031 C 306.992188 197.808594 304.367188 196.9375 300.699219 196.082031 C 297.796875 195.316406 295.089844 194.484375 292.570312 193.585938 C 290.054688 192.691406 287.855469 191.519531 285.980469 190.066406 C 284.101562 188.617188 282.609375 186.847656 281.5 184.753906 C 280.390625 182.664062 279.839844 180.082031 279.839844 177.011719 C 279.839844 174.28125 280.367188 171.785156 281.4375 169.523438 C 282.503906 167.265625 283.996094 165.34375 285.917969 163.765625 C 287.835938 162.1875 290.078125 160.972656 292.636719 160.117188 C 295.195312 159.265625 298.011719 158.835938 301.082031 158.835938 C 306.460938 158.835938 311.046875 159.945312 314.84375 162.164062 C 318.640625 164.386719 321.5625 167.113281 323.613281 170.355469 L 314.78125 178.933594 C 313.242188 176.542969 311.324219 174.6875 309.019531 173.363281 C 306.714844 172.042969 304.113281 171.378906 301.210938 171.378906 C 298.824219 171.378906 296.902344 171.894531 295.453125 172.917969 C 294 173.941406 293.277344 175.304688 293.277344 177.011719 C 293.277344 177.953125 293.507812 178.761719 293.980469 179.445312 C 294.449219 180.128906 295.152344 180.746094 296.09375 181.300781 C 297.03125 181.855469 298.160156 182.34375 299.484375 182.773438 C 300.804688 183.199219 302.363281 183.625 304.15625 184.050781 C 307.058594 184.820312 309.765625 185.714844 312.285156 186.738281 C 314.800781 187.761719 316.976562 189 318.8125 190.453125 C 320.648438 191.902344 322.09375 193.632812 323.164062 195.636719 C 324.230469 197.640625 324.761719 200.09375 324.761719 202.992188 C 324.761719 205.8125 324.144531 208.351562 322.90625 210.609375 C 321.667969 212.871094 320.027344 214.792969 317.980469 216.371094 C 315.929688 217.949219 313.542969 219.1875 310.8125 220.082031 C 308.078125 220.976562 305.179688 221.425781 302.109375 221.425781 C 296.21875 221.425781 291.183594 220.316406 287.003906 218.097656 C 282.824219 215.882812 279.582031 212.636719 277.277344 208.371094 Z M 286.878906 199.921875 "/>
<path fill-rule="nonzero" fill="rgb(100%, 100%, 100%)" fill-opacity="1" d="M 331.546875 131.957031 L 345.753906 131.957031 L 345.753906 166.515625 C 346.265625 165.664062 347.054688 164.789062 348.125 163.890625 C 349.1875 162.996094 350.382812 162.164062 351.707031 161.398438 C 353.027344 160.628906 354.566406 159.988281 356.316406 159.476562 C 358.0625 158.964844 360.046875 158.707031 362.265625 158.707031 C 365.765625 158.707031 368.921875 159.304688 371.738281 160.5 C 374.554688 161.695312 376.921875 163.359375 378.839844 165.492188 C 380.761719 167.625 382.253906 170.1875 383.320312 173.171875 C 384.386719 176.160156 384.921875 179.402344 384.921875 182.898438 L 384.921875 220.019531 L 370.714844 220.019531 L 370.714844 186.355469 C 370.714844 181.917969 369.667969 178.464844 367.578125 175.988281 C 365.484375 173.515625 362.605469 172.273438 358.9375 172.273438 C 357.0625 172.273438 355.332031 172.597656 353.753906 173.234375 C 352.175781 173.875 350.808594 174.792969 349.660156 175.988281 C 348.507812 177.183594 347.566406 178.675781 346.84375 180.46875 C 346.117188 182.261719 345.753906 184.222656 345.753906 186.355469 L 345.753906 220.019531 L 331.546875 220.019531 Z M 331.546875 131.957031 "/>
<path fill-rule="nonzero" fill="rgb(100%, 100%, 100%)" fill-opacity="1" d="M 392.792969 177.714844 C 394.285156 173.917969 396.375 170.613281 399.066406 167.796875 C 401.753906 164.980469 404.953125 162.761719 408.664062 161.140625 C 412.378906 159.519531 416.40625 158.707031 420.761719 158.707031 C 423.578125 158.707031 426.242188 159.074219 428.757812 159.796875 C 431.277344 160.523438 433.625 161.589844 435.796875 162.996094 C 437.976562 164.402344 439.957031 166.113281 441.75 168.117188 C 443.542969 170.121094 445.035156 172.402344 446.230469 174.964844 L 435.609375 182.644531 C 433.984375 179.316406 431.832031 176.691406 429.144531 174.773438 C 426.457031 172.851562 423.617188 171.890625 420.632812 171.890625 C 418.328125 171.890625 416.171875 172.382812 414.167969 173.363281 C 412.164062 174.347656 410.433594 175.625 408.984375 177.203125 C 407.53125 178.785156 406.425781 180.679688 405.65625 182.898438 C 404.886719 185.121094 404.503906 187.464844 404.503906 189.941406 C 404.503906 192.585938 404.929688 194.996094 405.785156 197.171875 C 406.636719 199.347656 407.769531 201.246094 409.175781 202.867188 C 410.585938 204.488281 412.269531 205.769531 414.234375 206.707031 C 416.195312 207.648438 418.285156 208.113281 420.503906 208.113281 C 423.660156 208.113281 426.5625 207.199219 429.207031 205.363281 C 431.851562 203.527344 434.070312 200.992188 435.863281 197.746094 L 446.359375 205.171875 C 443.882812 210.121094 440.363281 214.046875 435.796875 216.945312 C 431.234375 219.847656 426.089844 221.300781 420.375 221.300781 C 416.023438 221.300781 412.035156 220.484375 408.40625 218.867188 C 404.78125 217.246094 401.644531 215.027344 399 212.210938 C 396.355469 209.394531 394.285156 206.066406 392.792969 202.226562 C 391.300781 198.386719 390.554688 194.292969 390.554688 189.941406 C 390.554688 185.589844 391.300781 181.515625 392.792969 177.714844 "/>
<path fill-rule="nonzero" fill="rgb(100%, 100%, 100%)" fill-opacity="1" d="M 451.734375 131.957031 L 465.941406 131.957031 L 465.941406 166.515625 C 466.453125 165.664062 467.242188 164.789062 468.308594 163.890625 C 469.375 162.996094 470.570312 162.164062 471.894531 161.398438 C 473.214844 160.628906 474.75 159.988281 476.5 159.476562 C 478.25 158.964844 480.234375 158.707031 482.453125 158.707031 C 485.949219 158.707031 489.109375 159.304688 491.925781 160.5 C 494.742188 161.695312 497.109375 163.359375 499.027344 165.492188 C 500.949219 167.625 502.441406 170.1875 503.507812 173.171875 C 504.574219 176.160156 505.109375 179.402344 505.109375 182.898438 L 505.109375 220.019531 L 490.902344 220.019531 L 490.902344 186.355469 C 490.902344 181.917969 489.855469 178.464844 487.765625 175.988281 C 485.671875 173.515625 482.792969 172.273438 479.125 172.273438 C 477.25 172.273438 475.519531 172.597656 473.941406 173.234375 C 472.359375 173.875 470.996094 174.792969 469.84375 175.988281 C 468.695312 177.183594 467.753906 178.675781 467.03125 180.46875 C 466.304688 182.261719 465.941406 184.222656 465.941406 186.355469 L 465.941406 220.019531 L 451.734375 220.019531 Z M 451.734375 131.957031 "/>
<path fill-rule="nonzero" fill="rgb(100%, 100%, 100%)" fill-opacity="1" d="M 527.894531 208.113281 C 529.769531 209.480469 532.117188 210.164062 534.933594 210.164062 C 536.980469 210.164062 538.8125 209.824219 540.4375 209.136719 C 542.054688 208.457031 543.445312 207.496094 544.597656 206.257812 C 545.746094 205.023438 546.664062 203.59375 547.347656 201.96875 C 548.03125 200.351562 548.371094 198.558594 548.371094 196.59375 C 547.261719 196 545.683594 195.421875 543.636719 194.867188 C 541.585938 194.3125 539.242188 194.035156 536.597656 194.035156 C 533.351562 194.035156 530.621094 194.695312 528.40625 196.019531 C 526.183594 197.34375 525.078125 199.453125 525.078125 202.355469 C 525.078125 204.832031 526.015625 206.75 527.894531 208.113281 M 512.277344 170.355469 C 513.300781 168.992188 514.625 167.601562 516.246094 166.195312 C 517.867188 164.789062 519.722656 163.53125 521.8125 162.421875 C 523.902344 161.3125 526.183594 160.417969 528.660156 159.734375 C 531.132812 159.050781 533.695312 158.707031 536.339844 158.707031 C 540.265625 158.707031 543.828125 159.265625 547.027344 160.375 C 550.226562 161.484375 552.980469 163.058594 555.285156 165.109375 C 557.585938 167.15625 559.359375 169.714844 560.59375 172.789062 C 561.832031 175.859375 562.449219 179.402344 562.449219 183.410156 L 562.449219 220.019531 L 548.757812 220.019531 L 548.757812 212.980469 C 547.132812 215.710938 544.851562 217.777344 541.90625 219.1875 C 538.964844 220.59375 535.785156 221.296875 532.371094 221.296875 C 529.300781 221.296875 526.484375 220.890625 523.925781 220.082031 C 521.367188 219.273438 519.125 218.078125 517.207031 216.5 C 515.285156 214.921875 513.792969 213 512.726562 210.738281 C 511.65625 208.480469 511.125 205.941406 511.125 203.121094 C 511.125 200.222656 511.742188 197.597656 512.980469 195.253906 C 514.214844 192.90625 515.925781 190.921875 518.101562 189.300781 C 520.277344 187.679688 522.855469 186.398438 525.84375 185.460938 C 528.828125 184.519531 532.070312 184.050781 535.570312 184.050781 C 538.386719 184.050781 540.882812 184.289062 543.0625 184.753906 C 545.234375 185.226562 546.964844 185.800781 548.242188 186.484375 L 548.242188 184.050781 C 548.242188 182.261719 547.964844 180.640625 547.410156 179.1875 C 546.855469 177.738281 546.023438 176.480469 544.914062 175.410156 C 543.804688 174.34375 542.484375 173.492188 540.949219 172.851562 C 539.414062 172.210938 537.660156 171.890625 535.699219 171.890625 C 532.457031 171.890625 529.46875 172.703125 526.742188 174.324219 C 524.007812 175.945312 521.875 177.738281 520.339844 179.699219 Z M 512.277344 170.355469 "/>
<path fill-rule="nonzero" fill="rgb(100%, 100%, 100%)" fill-opacity="1" d="M 572.304688 159.988281 L 586.132812 159.988281 L 586.257812 167.796875 C 587.621094 164.8125 589.628906 162.546875 592.273438 161.011719 C 594.917969 159.476562 597.691406 158.707031 600.59375 158.707031 C 601.53125 158.707031 602.8125 158.835938 604.433594 159.09375 C 606.054688 159.347656 607.332031 159.730469 608.273438 160.246094 L 606.996094 173.429688 C 606.054688 172.917969 605.011719 172.53125 603.859375 172.273438 C 602.707031 172.019531 601.445312 171.890625 600.082031 171.890625 C 598.375 171.890625 596.730469 172.171875 595.152344 172.722656 C 593.574219 173.28125 592.148438 174.195312 590.867188 175.476562 C 589.585938 176.757812 588.539062 178.464844 587.730469 180.597656 C 586.917969 182.730469 586.515625 185.332031 586.515625 188.402344 L 586.515625 220.019531 L 572.304688 220.019531 Z M 572.304688 159.988281 "/>
<path fill-rule="nonzero" fill="rgb(100%, 100%, 100%)" fill-opacity="1" d="M 260.746094 198.316406 L 199.886719 198.316406 L 199.886719 182.988281 L 260.746094 182.988281 Z M 260.746094 198.316406 "/>
<path fill-rule="nonzero" fill="rgb(100%, 100%, 100%)" fill-opacity="1" d="M 273.820312 114.636719 L 257.210938 114.636719 L 254.355469 220.035156 L 273.820312 220.035156 Z M 273.820312 114.636719 "/>
<path fill-rule="nonzero" fill="rgb(100%, 100%, 100%)" fill-opacity="1" d="M 273.820312 114.636719 L 253.378906 114.636719 L 164.101562 220.035156 L 184.542969 220.035156 Z M 273.820312 114.636719 "/>
<path fill-rule="nonzero" fill="rgb(22.363281%, 56.877136%, 53.75061%)" fill-opacity="1" d="M 208.765625 154.617188 L 149.3125 154.617188 L 149.3125 218.859375 Z M 208.765625 154.617188 "/>
<path fill-rule="nonzero" fill="rgb(62.669373%, 65.87677%, 73.919678%)" fill-opacity="1" d="M 101.773438 154.617188 L 139.4375 154.617188 L 139.4375 212.96875 Z M 101.773438 154.617188 "/>
<path fill-rule="nonzero" fill="rgb(22.363281%, 56.877136%, 53.75061%)" fill-opacity="1" d="M 163.914062 148.0625 L 114.328125 148.0625 L 114.328125 68.019531 Z M 163.914062 148.0625 "/>
<path fill-rule="nonzero" fill="rgb(62.669373%, 65.87677%, 73.919678%)" fill-opacity="1" d="M 177.957031 112.570312 L 167.980469 122.679688 L 167.980469 148.296875 L 223.132812 112.570312 Z M 177.957031 112.570312 "/>
</svg>
