<?xml version="1.0" encoding="UTF-8" standalone="no"?>
<!-- Created with Inkscape (http://www.inkscape.org/) -->

<svg
   xmlns:dc="http://purl.org/dc/elements/1.1/"
   xmlns:cc="http://creativecommons.org/ns#"
   xmlns:rdf="http://www.w3.org/1999/02/22-rdf-syntax-ns#"
   xmlns:svg="http://www.w3.org/2000/svg"
   xmlns="http://www.w3.org/2000/svg"
   xmlns:sodipodi="http://sodipodi.sourceforge.net/DTD/sodipodi-0.dtd"
   xmlns:inkscape="http://www.inkscape.org/namespaces/inkscape"
   id="svg3344"
   version="1.1"
   inkscape:version="0.48.4 r9939"
   width="113.14364"
   height="162.13904"
   sodipodi:docname="Special_Operations_Command_Central_insignia.svg">
  <metadata
     id="metadata3350">
    <rdf:RDF>
      <cc:Work
         rdf:about="">
        <dc:format>image/svg+xml</dc:format>
        <dc:type
           rdf:resource="http://purl.org/dc/dcmitype/StillImage" />
        <dc:title />
      </cc:Work>
    </rdf:RDF>
  </metadata>
  <defs
     id="defs3348" />
  <sodipodi:namedview
     pagecolor="#ffffff"
     bordercolor="#666666"
     borderopacity="1"
     objecttolerance="10"
     gridtolerance="10"
     guidetolerance="10"
     inkscape:pageopacity="0"
     inkscape:pageshadow="2"
     inkscape:window-width="1600"
     inkscape:window-height="838"
     id="namedview3346"
     showgrid="false"
     inkscape:zoom="2"
     inkscape:cx="55.298878"
     inkscape:cy="31.556686"
     inkscape:window-x="-8"
     inkscape:window-y="-8"
     inkscape:window-maximized="1"
     inkscape:current-layer="g3908"
     showguides="true"
     inkscape:guide-bbox="true"
     fit-margin-top="0"
     fit-margin-left="0"
     fit-margin-right="0"
     fit-margin-bottom="0" />
  <g
     id="g4342">
    <g
       transform="matrix(0.26861239,0,0,0.26861239,161.89528,18.194052)"
       id="g4257">
      <g
         id="g3908">
        <g
           id="g3037">
          <g
             id="g4195">
            <g
               transform="translate(-1144.9637,-265.51797)"
               id="g4032">
              <g
                 transform="translate(526.08744,-50.911688)"
                 style="fill:#bf9266;fill-opacity:1"
                 id="g4178">
                <g
                   style="fill:#bf9266;fill-opacity:1"
                   id="g4114"
                   transform="matrix(1.063955,0,0,1.0194366,125.91926,139.70587)">
                  <g
                     style="fill:#bf9266;fill-opacity:1"
                     id="g4174"
                     transform="matrix(0.99810753,0.06417816,-0.0589198,0.99810753,11.035811,-12.280765)" />
                </g>
              </g>
            </g>
          </g>
        </g>
        <g
           id="g3238">
          <g
             transform="matrix(1,0,0,-1,0,467.20782)"
             id="g3893">
            <path
               sodipodi:nodetypes="ccccccccc"
               inkscape:connector-curvature="0"
               id="path3895"
               d="m -589.58651,48.667407 c 82.48687,-127.971992 305.74472,-137.679441 394.15877,0.507859 l -30.12993,49.770594 c -14.67025,27.47672 -37.0755,21.42436 -45.9358,2.53931 l 25.68453,-24.885292 c -60.45994,-77.30758562 -210.0611,-90.970395 -292.40851,-2.031456 l 22.22702,24.885298 c -2.98339,26.12334 -34.72025,22.96989 -46.42974,-5.586497 z"
               style="fill:#0a0472;fill-opacity:1;stroke:#bf9367;stroke-width:6.11737919;stroke-linecap:butt;stroke-linejoin:miter;stroke-miterlimit:4;stroke-opacity:1;stroke-dasharray:none" />
            <path
               sodipodi:nodetypes="cccc"
               inkscape:connector-curvature="0"
               id="path3897"
               d="m -545.37499,77.499994 -10.25,12.75 c 8.9458,26.364876 32.0271,21.877646 31.875,11.624996 z"
               style="fill:#bf9266;fill-opacity:1;stroke:none" />
            <path
               style="fill:#bf9266;fill-opacity:1;stroke:none"
               d="m -239.33529,78.954301 9.42019,13.374786 c -10.60094,25.744013 -33.35094,19.801043 -32.54849,9.578713 z"
               id="path3899"
               inkscape:connector-curvature="0"
               sodipodi:nodetypes="cccc" />
          </g>
          <g
             style="fill:#bf9266;fill-opacity:1"
             id="g3785">
            <path
               style="fill:#bf9266;fill-opacity:1;stroke:none"
               d="m -392.96875,16.71875 -0.0625,0.1875 -38.5,88.125 c 7.71987,1.77987 16.64832,1.02491 15.25,22.34375 l -3.0625,28.4375 L -479.75,38.53125 -464,116.71875 -488.875,106.5625 -464,170 l -22.84375,-4.5625 13.1875,57.375 c -5.10294,-9.09031 -7.73101,-14.99262 -11.59651,-26.90625 -3.52528,-16.11672 -4.56526,-22.51072 -3.12224,-34.03125 l 17.78125,3.0625 -38.59375,-75.625 c -3.69653,8.81163 -6.7817,17.918 -9.125,27.40625 -3.35765,25.81595 -5.79577,51.67446 1.5,78.15625 7.61441,47.56227 37.53663,68.74883 54.3125,82.75 4.24294,2.36886 4.86997,4.72489 6.625,7.09375 l 14.71875,63.46875 c -12.28361,1.31829 -22.91324,-1.16747 -30.46875,-10.65625 18.6223,-13.29227 27.72101,-28.03975 10.65625,-46.71875 L -488.875,266.96875 c -15.52713,-15.59835 -21.64051,-31.97623 -29.4375,-48.21875 -10.7339,-27.42231 -12.774,-56.69116 -10.6875,-86.8125 -8.5502,3.99628 -17.21311,7.44826 -21.8125,27.90625 -10.0323,9.61698 -23.36409,5.98492 -27.90625,37.5625 -12.09568,13.95898 -24.51572,27.53406 -5.59375,81.75 -5.70564,18.88018 0.0894,49.14961 24.875,72.59375 10.48584,10.57238 21.30522,19.6341 31.96875,29.4375 6.94814,14.55529 17.32067,24.59102 37.0625,22.3125 1.77485,12.57581 12.22226,21.21812 43.65625,20.3125 6.65181,3.33127 15.53578,4.44989 28.9375,1.03125 5.68327,8.17239 15.04114,11.02073 24.21875,11.28125 0.0616,0.002 0.12593,-0.002 0.1875,0 0.29795,0.007 0.60887,0.0292 0.90625,0.0312 l 0,-0.0312 c 9.49315,-0.14115 18.71925,-3.1035 24.40625,-11.28125 13.40172,3.41864 22.28569,2.30002 28.9375,-1.03125 31.43399,0.90562 41.8814,-7.73669 43.65625,-20.3125 19.74183,2.27852 30.11436,-7.75721 37.0625,-22.3125 l 31.96875,-29.4375 c 24.68388,-24.87737 31.8851,-54.38096 24.875,-72.59375 18.92197,-54.21594 6.50194,-67.79102 -5.59375,-81.75 -4.54215,-31.57758 -17.87395,-27.94552 -27.90625,-37.5625 -4.59939,-20.45799 -13.2623,-23.90997 -21.8125,-27.90625 2.08651,30.12134 0.0464,59.39019 -10.6875,86.8125 -7.79699,16.24252 -13.91037,32.6204 -29.4375,48.21875 l -27.90625,23.84375 c -17.06476,18.679 -7.96605,33.42648 10.65625,46.71875 -7.55551,9.48878 -18.18514,11.97454 -30.46875,10.65625 l 14.71875,-63.46875 c 1.75503,-2.36886 2.38206,-4.72489 6.625,-7.09375 16.77587,-14.00117 46.69809,-35.18773 54.3125,-82.75 7.29577,-26.48179 4.85765,-52.3403 1.5,-78.15625 -2.3433,-9.48825 -5.42847,-18.59462 -9.125,-27.40625 l -38.59375,75.625 17.78125,-3.0625 c 1.88338,13.11107 -1.34511,24.86493 -2.59191,33.6777 -3.67063,10.19979 -6.04962,16.73864 -12.12684,27.2598 l 13.1875,-57.375 -22.84375,4.5625 24.875,-63.4375 -24.875,10.15625 15.75,-78.1875 -60.40625,117.28125 -3.0625,-28.4375 c -1.39832,-21.31884 7.53013,-20.56388 15.25,-22.34375 l -38.5625,-88.25 0,-0.03125 z m -43.375,145.15625 15.75,3.0625 -2.5625,28.6875 z m 86.78125,0 -13.1875,31.75 -2.5625,-28.6875 z m -92.125,38.84375 16.75,5.84375 -2.03125,25.625 z m 97.46875,0 -14.71875,31.46875 -2.03125,-25.625 z"
               id="path4131"
               inkscape:connector-curvature="0"
               sodipodi:nodetypes="ccccccccccccccccccccccccccccccccccccccccccccccccccccccccccccccccccccccccccccccccccccccc" />
            <path
               style="fill:#d40000;fill-opacity:1;stroke:none"
               d="m -392.5,27.75 -0.0625,0.125 -0.0312,-0.09375 -0.125,0.4375 L -424.5,99 c 5.96634,5.36323 16.14647,1.14369 13,27.5 l -15.5,134 c -0.41484,0.89732 -0.77381,1.81476 -5.25,1.25 -26.44159,-0.87505 -73.13065,-53.22186 -63.0625,-109.875 L -483.25,155 -509.5625,101.4375 c -5.30544,18.16667 -6.17699,36.39583 -6.6875,54.3125 -0.99394,31.62532 9.79321,59.79694 24.75,83.25 15.69711,21.19777 33.51141,37.41584 58.5,43.5 2.29354,0.59856 4.31468,1.70179 4.5,5 l 0.25,10.25 13.5,0 8,-186.25 c 1.77433,-30.049395 7.58254,-37.658795 13.9375,-42.1875 6.6806,4.030128 12.69106,12.112332 14.46875,42.21875 l 8,186.25 13.5,0 0.25,-10.25 c 0.18532,-3.29821 2.20646,-4.40144 4.5,-5 24.98859,-6.08416 42.80289,-22.30223 58.5,-43.5 14.95679,-23.45306 25.74394,-51.62468 24.75,-83.25 -0.51051,-17.91667 -1.38206,-36.14583 -6.6875,-54.3125 l -26.3125,53.5625 12.0625,-3.125 c 10.06815,56.65314 -36.62091,108.99995 -63.0625,109.875 -4.47619,0.56476 -4.83516,-0.35268 -5.25,-1.25 l -15.5,-134 c -3.14647,-26.35631 7.03366,-22.13677 13,-27.5 L -392.5,28 l 0,-0.25 z"
               id="path3780"
               inkscape:connector-curvature="0" />
          </g>
          <path
             sodipodi:nodetypes="ccccc"
             inkscape:connector-curvature="0"
             id="path3789"
             d="m -410.4375,297.625 17.03033,0.10355 0.21967,-218.853548 c -3.18633,6.673694 -7.83183,13.02983 -8.5,43.999998 z"
             style="fill:#000000;stroke:none" />
          <g
             transform="translate(503.99998,40.000001)"
             id="g3794">
            <g
               id="g3803">
              <rect
                 style="fill:#000000;fill-opacity:1;stroke:none"
                 id="rect3791"
                 width="73"
                 height="9"
                 x="-428"
                 y="301.75"
                 transform="translate(-504,-40)" />
              <g
                 transform="translate(-635,-41)"
                 id="g3868">
                <g
                   id="g3862">
                  <g
                     transform="translate(1110.1576,38.890873)"
                     id="g3857">
                    <path
                       id="path2998"
                       transform="translate(-979.1576,-37.890873)"
                       d="m -533.5,144.09375 c -4.2207,6.20442 -6.55365,6.24161 -13.28125,19.96875 l -3.6875,5.84375 c -11.4478,4.21334 -19.85895,13.86673 -21.90625,35 l -4.25,2.46875 c -4.6761,5.41388 -13.53535,9.15704 -8.84375,45.96875 l 10.25,27.9375 -3.15625,6.125 c -0.057,13.82552 -0.48425,26.42387 10.59375,45.15625 11.0167,17.22608 21.85145,22.96644 32.53125,27.90625 3.2028,1.56175 7.75575,2.69852 12.34375,3.53125 l 0.40625,0.125 c 8.3037,1.30005 17.88525,2.57381 25.15625,1.65625 -13.4144,-7.07737 -10.1004,-12.67175 -6,-15 4.4642,-2.42771 20.746,2.29313 22,3.1875 l -9.5625,13.875 c -1.9613,1.96752 -5.3512,3.31235 -11.125,3.125 l -20.5,-1.15625 0,0.21875 c -0.3995,9.03282 4.54545,16.06476 11.65625,22.28125 6.4818,4.89094 12.9557,8.0182 19.4375,6.34375 l 0.125,0.125 c 5.4033,-1.71241 10.20835,-3.75957 14.46875,-6.125 2.5996,-1.08979 4.1405,2.30073 2.5,3.5 -4.6879,3.11378 -7.7284,6.22997 -10.5625,9.34375 l 1.25,1.28125 c 8.74274,8.85066 19.54514,13.19625 32.8125,12.09375 0.2648,-0.009 0.51986,-0.0432 0.78125,-0.0625 l 0.78125,-0.0625 c 0.0104,-10e-4 0.0208,10e-4 0.0312,0 3.58453,-0.47342 6.67706,-2.47947 7.9375,-10.3125 1.09348,-5.46535 6.08681,-2.99705 4.8125,0.9375 -2.29589,5.37128 -2.91663,9.74981 -0.8125,11.78125 5.63926,2.9516 12.01812,2.12488 18.71875,-0.21875 8.0999,-4.34045 9.24895,-11.67523 10.96875,-18.75 3.1739,-15.2028 -2.0573,-30.39095 -3.1875,-45.59375 -10.3249,-0.13852 -19.4256,0.029 -32.1875,-0.71875 -22.806,-2.57882 -27.02565,-9.8189 -33.21875,-19.78125 l 13.4375,-10.625 c 7.5152,-9.95202 12.3451,-20.272 -7.0625,-33.9375 -14.9784,-11.59358 -29.66715,-25.06956 -42.78125,-48.78125 -11.7668,-26.14165 -22.9665,-53.11362 -20.875,-98.65625 z m 36.59375,151.625 c 0.1867,0.003 0.3871,0.0193 0.5625,0.0625 10.6483,2.63983 24.4995,5.15126 24,13.25 -0.9583,3.21329 -1.9167,3.66973 -2.875,4.25 -2.6605,0.56661 -5.8937,0.461 -8,-1.125 l -14.375,-13.625 c -1.9493,-1.8738 -0.6192,-2.8321 0.6875,-2.8125 z m 6.53125,36.65625 7.625,3.09375 c 2.2387,0.91334 2.5174,1.83666 1.9375,2.75 l -5.5625,4.59375 c -3.1485,1.87456 -5.8063,0.45515 -8.5,-0.625 l -9.53125,-6.90625 c -0.9462,-1.54852 -0.62915,-2.4423 0.78125,-2.8125 l 13.25,-0.0937 z m 23.4375,32.34375 17.40625,1.5 c -3.245,5.49487 -9.948,13.09705 -32.6875,9.625 -1.679,0.1343 -3.46325,-2.41261 0.15625,-3.15625 7.3573,-1.8786 11.2117,-4.94218 15.125,-7.96875 z m 44.21875,3.1875 c 3.0134,2.08214 1.841,7.41995 2.125,11.625 -1.2745,8.76228 -6.3062,14.08046 -11.5,19.25 0.1734,-7.60853 -0.394,-15.30967 -2.875,-23.25 3.2349,-4.66282 7.7072,-6.23192 12.25,-7.625 z m -25.375,16.5625 c 0.10378,-0.0178 0.19618,-5.4e-4 0.28125,0 0.5673,0.004 0.7692,0.37879 1.125,0.59375 l 2.375,5.125 c 1.0711,4.88364 -0.25685,7.50859 -2.46875,9.34375 l -8.75,4.15625 c -0.6482,0.23944 -1.2893,0.55385 -1.9375,-1.5 0.3537,-3.8007 -0.17985,-7.60555 1.21875,-11.40625 0.2681,-0.85003 0.65245,-1.53473 1.15625,-2.03125 1.1965,-1.2669 3.8349,-2.51435 5.75,-3.78125 0.5349,-0.278 0.93865,-0.44656 1.25,-0.5 z"
                       style="fill:#07066c;fill-opacity:1;stroke:none"
                       inkscape:connector-curvature="0" />
                    <path
                       style="fill:#bf9266;fill-opacity:1;stroke:none"
                       d="m -1008.1575,146.21422 c -9.2691,13.36971 -13.7027,27.88771 -12.4381,41.45023 l -3.8254,0.88779 -0.7955,-19.62221 4.3311,-8.66206 8.7504,-14.31891 4.0659,0.97227 0,0"
                       id="path3853"
                       inkscape:connector-curvature="0"
                       transform="translate(-504,-40)"
                       sodipodi:nodetypes="cccccccc" />
                    <path
                       style="fill:#bf9266;fill-opacity:1;stroke:none"
                       d="m -1046.6885,200.17185 c -1.2774,8.16202 0.094,16.57403 1.3624,24.67355 l -5.1694,-5.53401 -2.7401,-13.16987 3.9775,-1.85615 z"
                       id="path3855"
                       inkscape:connector-curvature="0"
                       transform="translate(-504,-40)"
                       sodipodi:nodetypes="cccccc" />
                  </g>
                </g>
                <path
                   style="fill:none;stroke:#bf9267;stroke-width:4;stroke-linecap:round;stroke-linejoin:miter;stroke-miterlimit:4;stroke-opacity:1;stroke-dasharray:none"
                   d="m -444.49443,206.65861 c 5.9227,43.41805 31.2062,82.60416 76.9421,116.8494"
                   id="path3790"
                   inkscape:connector-curvature="0"
                   sodipodi:nodetypes="cc" />
                <path
                   sodipodi:nodetypes="cc"
                   inkscape:connector-curvature="0"
                   id="path3792"
                   d="m -447.36705,279.77862 c 8.9937,23.43902 25.0302,39.05786 61.7027,59.19483"
                   style="fill:none;stroke:#bf9367;stroke-width:4;stroke-linecap:round;stroke-linejoin:miter;stroke-miterlimit:4;stroke-opacity:1;stroke-dasharray:none" />
                <path
                   style="fill:none;stroke:#bf9367;stroke-width:4;stroke-linecap:round;stroke-linejoin:miter;stroke-miterlimit:4;stroke-opacity:1;stroke-dasharray:none"
                   d="m -415.48256,170.40388 c -5.6974,46.73073 14.9608,87.07754 43.1642,117.97964"
                   id="path3788"
                   inkscape:connector-curvature="0"
                   sodipodi:nodetypes="cc" />
              </g>
            </g>
            <g
               transform="matrix(-1,0,0,1,-1791.4076,0)"
               id="g3881">
              <rect
                 transform="translate(-504,-40)"
                 y="301.75"
                 x="-428"
                 height="9"
                 width="73"
                 id="rect3883"
                 style="fill:#000000;fill-opacity:1;stroke:none" />
              <g
                 id="g3885"
                 transform="translate(-635,-41)">
                <g
                   id="g3887">
                  <g
                     id="g3889"
                     transform="translate(1110.1576,38.890873)">
                    <path
                       inkscape:connector-curvature="0"
                       style="fill:#07066c;fill-opacity:1;stroke:none"
                       d="m -533.5,144.09375 c -4.2207,6.20442 -6.55365,6.24161 -13.28125,19.96875 l -3.6875,5.84375 c -11.4478,4.21334 -19.85895,13.86673 -21.90625,35 l -4.25,2.46875 c -4.6761,5.41388 -13.53535,9.15704 -8.84375,45.96875 l 10.25,27.9375 -3.15625,6.125 c -0.057,13.82552 -0.48425,26.42387 10.59375,45.15625 11.0167,17.22608 21.85145,22.96644 32.53125,27.90625 3.2028,1.56175 7.75575,2.69852 12.34375,3.53125 l 0.40625,0.125 c 8.3037,1.30005 17.88525,2.57381 25.15625,1.65625 -13.4144,-7.07737 -10.1004,-12.67175 -6,-15 4.4642,-2.42771 20.746,2.29313 22,3.1875 l -9.5625,13.875 c -1.9613,1.96752 -5.3512,3.31235 -11.125,3.125 l -20.5,-1.15625 0,0.21875 c -0.3995,9.03282 4.54545,16.06476 11.65625,22.28125 6.4818,4.89094 12.9557,8.0182 19.4375,6.34375 l 0.125,0.125 c 5.4033,-1.71241 10.20835,-3.75957 14.46875,-6.125 2.5996,-1.08979 4.1405,2.30073 2.5,3.5 -4.6879,3.11378 -7.7284,6.22997 -10.5625,9.34375 l 1.25,1.28125 c 8.74274,8.85066 19.54514,13.19625 32.8125,12.09375 0.2648,-0.009 0.51986,-0.0432 0.78125,-0.0625 l 0.78125,-0.0625 c 0.0104,-10e-4 0.0208,10e-4 0.0312,0 3.58453,-0.47342 6.67706,-2.47947 7.9375,-10.3125 1.09348,-5.46535 6.08681,-2.99705 4.8125,0.9375 -2.29589,5.37128 -2.91663,9.74981 -0.8125,11.78125 5.63926,2.9516 12.01812,2.12488 18.71875,-0.21875 8.0999,-4.34045 9.24895,-11.67523 10.96875,-18.75 3.1739,-15.2028 -2.0573,-30.39095 -3.1875,-45.59375 -10.3249,-0.13852 -19.4256,0.029 -32.1875,-0.71875 -22.806,-2.57882 -27.02565,-9.8189 -33.21875,-19.78125 l 13.4375,-10.625 c 7.5152,-9.95202 12.3451,-20.272 -7.0625,-33.9375 -14.9784,-11.59358 -29.66715,-25.06956 -42.78125,-48.78125 -11.7668,-26.14165 -22.9665,-53.11362 -20.875,-98.65625 z m 36.59375,151.625 c 0.1867,0.003 0.3871,0.0193 0.5625,0.0625 10.6483,2.63983 24.4995,5.15126 24,13.25 -0.9583,3.21329 -1.9167,3.66973 -2.875,4.25 -2.6605,0.56661 -5.8937,0.461 -8,-1.125 l -14.375,-13.625 c -1.9493,-1.8738 -0.6192,-2.8321 0.6875,-2.8125 z m 6.53125,36.65625 7.625,3.09375 c 2.2387,0.91334 2.5174,1.83666 1.9375,2.75 l -5.5625,4.59375 c -3.1485,1.87456 -5.8063,0.45515 -8.5,-0.625 l -9.53125,-6.90625 c -0.9462,-1.54852 -0.62915,-2.4423 0.78125,-2.8125 l 13.25,-0.0937 z m 23.4375,32.34375 17.40625,1.5 c -3.245,5.49487 -9.948,13.09705 -32.6875,9.625 -1.679,0.1343 -3.46325,-2.41261 0.15625,-3.15625 7.3573,-1.8786 11.2117,-4.94218 15.125,-7.96875 z m 44.21875,3.1875 c 3.0134,2.08214 1.841,7.41995 2.125,11.625 -1.2745,8.76228 -6.3062,14.08046 -11.5,19.25 0.1734,-7.60853 -0.394,-15.30967 -2.875,-23.25 3.2349,-4.66282 7.7072,-6.23192 12.25,-7.625 z m -25.375,16.5625 c 0.10378,-0.0178 0.19618,-5.4e-4 0.28125,0 0.5673,0.004 0.7692,0.37879 1.125,0.59375 l 2.375,5.125 c 1.0711,4.88364 -0.25685,7.50859 -2.46875,9.34375 l -8.75,4.15625 c -0.6482,0.23944 -1.2893,0.55385 -1.9375,-1.5 0.3537,-3.8007 -0.17985,-7.60555 1.21875,-11.40625 0.2681,-0.85003 0.65245,-1.53473 1.15625,-2.03125 1.1965,-1.2669 3.8349,-2.51435 5.75,-3.78125 0.5349,-0.278 0.93865,-0.44656 1.25,-0.5 z"
                       transform="translate(-979.1576,-37.890873)"
                       id="path3891" />
                    <path
                       sodipodi:nodetypes="cccccccc"
                       transform="translate(-504,-40)"
                       inkscape:connector-curvature="0"
                       id="path3893"
                       d="m -1008.1575,146.21422 c -9.2691,13.36971 -13.7027,27.88771 -12.4381,41.45023 l -3.8254,0.88779 -0.7955,-19.62221 4.3311,-8.66206 8.7504,-14.31891 4.0659,0.97227 0,0"
                       style="fill:#bf9266;fill-opacity:1;stroke:none" />
                    <path
                       sodipodi:nodetypes="cccccc"
                       transform="translate(-504,-40)"
                       inkscape:connector-curvature="0"
                       id="path3896"
                       d="m -1046.6885,200.17185 c -1.2774,8.16202 0.094,16.57403 1.3624,24.67355 l -5.1694,-5.53401 -2.7401,-13.16987 3.9775,-1.85615 z"
                       style="fill:#bf9266;fill-opacity:1;stroke:none" />
                  </g>
                </g>
                <path
                   sodipodi:nodetypes="cc"
                   inkscape:connector-curvature="0"
                   id="path3898"
                   d="m -444.49443,206.65861 c 5.9227,43.41805 31.2062,82.60416 76.9421,116.8494"
                   style="fill:none;stroke:#bf9267;stroke-width:4;stroke-linecap:round;stroke-linejoin:miter;stroke-miterlimit:4;stroke-opacity:1;stroke-dasharray:none" />
                <path
                   style="fill:none;stroke:#bf9367;stroke-width:4;stroke-linecap:round;stroke-linejoin:miter;stroke-miterlimit:4;stroke-opacity:1;stroke-dasharray:none"
                   d="m -447.36705,279.77862 c 8.9937,23.43902 25.0302,39.05786 61.7027,59.19483"
                   id="path3900"
                   inkscape:connector-curvature="0"
                   sodipodi:nodetypes="cc" />
                <path
                   sodipodi:nodetypes="cc"
                   inkscape:connector-curvature="0"
                   id="path3902"
                   d="m -415.48256,170.40388 c -5.6974,46.73073 14.9608,87.07754 43.1642,117.97964"
                   style="fill:none;stroke:#bf9367;stroke-width:4;stroke-linecap:round;stroke-linejoin:miter;stroke-miterlimit:4;stroke-opacity:1;stroke-dasharray:none" />
              </g>
            </g>
          </g>
          <g
             transform="translate(304.49999,-21.499999)"
             id="g3094">
            <path
               style="fill:#000000;stroke:none"
               d="m -706.81251,337.625 0.25,1.375 c 7.82147,2.08149 14.98877,1.76437 21.8125,0.1875 l 0,-1.4375 c -7.14386,0.27379 -14.26974,0.57456 -22.0625,-0.125 z"
               id="path3062"
               inkscape:connector-curvature="0"
               sodipodi:nodetypes="ccccc" />
            <path
               sodipodi:nodetypes="ccccc"
               inkscape:connector-curvature="0"
               id="path3064"
               d="m -706.81251,343.0625 0.25,1.375 c 7.82147,2.08149 14.98877,1.76437 21.8125,0.1875 l 0,-1.4375 c -7.14386,0.27379 -14.26974,0.57456 -22.0625,-0.125 z"
               style="fill:#000000;stroke:none" />
            <path
               style="fill:#000000;stroke:none"
               d="m -706.75001,348.9375 0.25,1.375 c 7.82147,2.08149 14.98877,1.76437 21.8125,0.1875 l 0,-1.4375 c -7.14386,0.27379 -14.26974,0.57456 -22.0625,-0.125 z"
               id="path3066"
               inkscape:connector-curvature="0"
               sodipodi:nodetypes="ccccc" />
            <path
               sodipodi:nodetypes="ccccc"
               inkscape:connector-curvature="0"
               id="path3068"
               d="m -707.00001,354.4375 0.25,1.375 c 7.82147,2.08149 14.98877,1.76437 21.8125,0.1875 l 0,-1.4375 c -7.14386,0.27379 -14.26974,0.57456 -22.0625,-0.125 z"
               style="fill:#000000;stroke:none" />
            <path
               sodipodi:nodetypes="ccccc"
               inkscape:connector-curvature="0"
               id="path3070"
               d="m -707.12501,360.1875 0.25,1.375 c 7.82147,2.08149 14.98877,1.76437 21.8125,0.1875 l 0,-1.4375 c -7.14386,0.27379 -14.26974,0.57456 -22.0625,-0.125 z"
               style="fill:#000000;stroke:none" />
            <path
               style="fill:#000000;stroke:none"
               d="m -707.12501,365.625 0.25,1.375 c 7.82147,2.08149 14.98877,1.76437 21.8125,0.1875 l 0,-1.4375 c -7.14386,0.27379 -14.26974,0.57456 -22.0625,-0.125 z"
               id="path3072"
               inkscape:connector-curvature="0"
               sodipodi:nodetypes="ccccc" />
            <path
               sodipodi:nodetypes="ccccc"
               inkscape:connector-curvature="0"
               id="path3074"
               d="m -707.06251,371.5 0.25,1.375 c 7.82147,2.08149 14.98877,1.76437 21.8125,0.1875 l 0,-1.4375 c -7.14386,0.27379 -14.26974,0.57456 -22.0625,-0.125 z"
               style="fill:#000000;stroke:none" />
            <path
               style="fill:#000000;stroke:none"
               d="m -707.31251,377 0.25,1.375 c 7.82147,2.08149 14.98877,1.76437 21.8125,0.1875 l 0,-1.4375 c -7.14386,0.27379 -14.26974,0.57456 -22.0625,-0.125 z"
               id="path3076"
               inkscape:connector-curvature="0"
               sodipodi:nodetypes="ccccc" />
            <path
               style="fill:#000000;stroke:none"
               d="m -707.18751,382.875 0.25,1.375 c 7.82147,2.08149 14.98877,1.76437 21.8125,0.1875 l 0,-1.4375 c -7.14386,0.27379 -14.26974,0.57456 -22.0625,-0.125 z"
               id="path3078"
               inkscape:connector-curvature="0"
               sodipodi:nodetypes="ccccc" />
            <path
               sodipodi:nodetypes="ccccc"
               inkscape:connector-curvature="0"
               id="path3080"
               d="m -707.18751,388.3125 0.25,1.375 c 7.82147,2.08149 14.98877,1.76437 21.8125,0.1875 l 0,-1.4375 c -7.14386,0.27379 -14.26974,0.57456 -22.0625,-0.125 z"
               style="fill:#000000;stroke:none" />
            <path
               style="fill:#000000;stroke:none"
               d="m -707.12501,394.1875 0.25,1.375 c 7.82147,2.08149 14.98877,1.76437 21.8125,0.1875 l 0,-1.4375 c -7.14386,0.27379 -14.26974,0.57456 -22.0625,-0.125 z"
               id="path3082"
               inkscape:connector-curvature="0"
               sodipodi:nodetypes="ccccc" />
            <path
               sodipodi:nodetypes="ccccc"
               inkscape:connector-curvature="0"
               id="path3084"
               d="m -707.37501,399.6875 0.25,1.375 c 7.82147,2.08149 14.98877,1.76437 21.8125,0.1875 l 0,-1.4375 c -7.14386,0.27379 -14.26974,0.57456 -22.0625,-0.125 z"
               style="fill:#000000;stroke:none" />
            <path
               sodipodi:nodetypes="ccccc"
               inkscape:connector-curvature="0"
               id="path3086"
               d="m -707.31251,405.75 0.25,1.375 c 7.82147,2.08149 14.98877,1.76437 21.8125,0.1875 l 0,-1.4375 c -7.14386,0.27379 -14.26974,0.57456 -22.0625,-0.125 z"
               style="fill:#000000;stroke:none" />
            <path
               style="fill:#000000;stroke:none"
               d="m -707.31251,411.1875 0.25,1.375 c 7.82147,2.08149 14.98877,1.76437 21.8125,0.1875 l 0,-1.4375 c -7.14386,0.27379 -14.26974,0.57456 -22.0625,-0.125 z"
               id="path3088"
               inkscape:connector-curvature="0"
               sodipodi:nodetypes="ccccc" />
            <path
               sodipodi:nodetypes="ccccc"
               inkscape:connector-curvature="0"
               id="path3090"
               d="m -707.25001,417.0625 0.25,1.375 c 7.82147,2.08149 14.98877,1.76437 21.8125,0.1875 l 0,-1.4375 c -7.14386,0.27379 -14.26974,0.57456 -22.0625,-0.125 z"
               style="fill:#000000;stroke:none" />
            <path
               style="fill:#000000;stroke:none"
               d="m -707.50001,422.5625 0.25,1.375 c 7.82147,2.08149 14.98877,1.76437 21.8125,0.1875 l 0,-1.4375 c -7.14386,0.27379 -14.26974,0.57456 -22.0625,-0.125 z"
               id="path3092"
               inkscape:connector-curvature="0"
               sodipodi:nodetypes="ccccc" />
          </g>
          <path
             sodipodi:nodetypes="ccccc"
             inkscape:connector-curvature="0"
             id="path3112"
             d="m -428.22428,315.39334 0.0124,31.64721 13.2993,0.007 2.9601,-31.72 z"
             style="fill:#d40000;fill-opacity:1;stroke:none" />
          <path
             style="fill:#d40000;fill-opacity:1;stroke:none"
             d="m -355.45248,315.39334 -0.0124,31.64721 -13.2993,0.007 -2.9601,-31.72 z"
             id="path3114"
             inkscape:connector-curvature="0"
             sodipodi:nodetypes="ccccc" />
          <g
             id="g3888">
            <path
               style="fill:#0a0472;fill-opacity:1;stroke:#bf9367;stroke-width:6.11737919;stroke-linecap:butt;stroke-linejoin:miter;stroke-miterlimit:4;stroke-opacity:1;stroke-dasharray:none"
               d="m -589.58651,48.667407 c 26.33629,-40.8587217 67.02262,-69.661693 113.08857,-85.444543 98.2154,-33.649992 220.88487,-8.114647 281.0702,85.952402 l -30.12993,49.770594 c -14.67025,27.47672 -37.0755,21.42436 -45.9358,2.53931 l 25.68453,-24.885292 c -60.45994,-77.30758562 -210.0611,-90.970395 -292.40851,-2.031456 l 22.22702,24.885298 c -2.98339,26.12334 -34.72025,22.96989 -46.42974,-5.586497 z"
               id="path3354"
               inkscape:connector-curvature="0"
               sodipodi:nodetypes="cscccccccc" />
            <path
               style="fill:#ffffff;stroke:none"
               d="m -545.37499,77.499994 -10.25,12.75 c 8.9458,26.364876 32.0271,21.877646 31.875,11.624996 z"
               id="path3116"
               inkscape:connector-curvature="0"
               sodipodi:nodetypes="cccc" />
            <path
               sodipodi:nodetypes="cccc"
               inkscape:connector-curvature="0"
               id="path3886"
               d="m -239.33529,78.954301 9.42019,13.374786 c -10.60094,25.744013 -33.35094,19.801043 -32.54849,9.578713 z"
               style="fill:#ffffff;stroke:none" />
          </g>
          <path
             sodipodi:nodetypes="cccccsssss"
             inkscape:connector-curvature="0"
             id="path3903"
             d="m -401.84077,415.85104 -4.59375,6 c 7.47806,6.82013 20.54226,7.19409 29.34375,0.1875 l -4.40625,-5.84375 z m 9.9375,6.25 c 2.36929,0 4.28125,0.93543 4.28125,2.09375 0,1.15832 -1.91196,2.09375 -4.28125,2.09375 -2.36929,0 -4.3125,-0.93543 -4.3125,-2.09375 0,-1.15832 1.94321,-2.09375 4.3125,-2.09375 z"
             style="fill:#bf9266;fill-opacity:1;stroke:none" />
          <g
             transform="matrix(0.85472606,-0.63359583,0.60708465,0.8189623,-516.60326,70.85691)"
             style="fill:#bf9266;fill-opacity:1"
             id="g4165">
            <path
               transform="matrix(1.0851567,0,0,1.0088766,3.9717281,-62.778205)"
               id="path4078"
               d="M -0.12207801,38.564868 C 3.9534493,25.876451 8.2543513,13.263449 12.339269,0.57503225 c 1.540061,0 3.080122,0 4.629574,0 4.338464,12.68841675 8.930475,25.30141875 13.26894,37.98983575 -1.624577,0 -3.258544,0 -4.88312,0 -1.248952,-3.836691 -2.554248,-7.663955 -3.784418,-11.500645 -4.526277,0 -9.052554,0 -13.5694403,0 -1.1644364,3.83669 -2.3946071,7.663954 -3.568434,11.500645 -1.5212798,0 -3.0331689,0 -4.55444871,0 z M 9.240366,22.963583 c 3.66234,0 7.334071,0 10.996411,0 -1.108093,-3.506754 -2.28192,-7.004081 -3.380622,-10.520262 -1.023577,-3.1862444 -1.802998,-5.8257367 -2.310091,-7.8713433 -0.403797,2.4321036 -1.004796,4.835927 -1.746655,7.2491773 -1.164436,3.723569 -2.394607,7.418859 -3.559043,11.142428 z"
               style="fill:#bf9266;fill-opacity:1;fill-rule:evenodd;stroke:none"
               inkscape:connector-curvature="0" />
            <path
               style="fill:#bf9266;fill-opacity:1;fill-rule:evenodd;stroke:none"
               d="m 19.331515,-62.197547 3.087945,9.02463 c 0.0082,-0.03113 0.01828,-0.06159 0.02657,-0.09272 1.334422,4.042719 2.732012,8.078702 4.090339,12.115259 0.23836,0.708342 0.473987,1.423113 0.709568,2.132531 l 2.21774,6.428503 0.02937,0 c 0.98795,2.908312 2.052035,5.807259 3.049385,8.715568 l 6.961056,0 C 34.962864,-36.676038 30.186966,-49.395282 25.646346,-62.197548 l -6.314835,0 z"
               id="path4116"
               inkscape:connector-curvature="0" />
          </g>
          <path
             inkscape:connector-curvature="0"
             style="fill:#bf9266;fill-opacity:1;fill-rule:evenodd;stroke:none"
             d="M 3.5298018,195.83594 C -2.028396,184.57241 -7.5865974,173.30887 -13.148931,162.03696 c 2.198973,-1.18197 4.4076332,-2.36914 6.6162926,-3.55632 5.56233456,11.27192 11.1205361,22.53545 16.6787334,33.79898 -2.2086596,1.18718 -4.4173204,2.37435 -6.6162932,3.55632"
             id="path4118"
             transform="matrix(1.063955,0,0,1.0194366,-492.957,-176.72379)" />
          <path
             inkscape:connector-curvature="0"
             style="fill:#bf9266;fill-opacity:1;fill-rule:evenodd;stroke:none"
             d="M 21.311988,187.40204 C 17.518986,175.36691 13.725986,163.3318 9.9301446,151.28773 c 3.8169204,-1.30031 7.6338424,-2.60061 11.4510664,-3.89996 2.892724,-0.98493 5.08714,-1.38571 6.592045,-1.17445 1.510552,0.22918 2.920828,1.00815 4.215888,2.40148 1.305852,1.39958 2.299762,3.15329 2.974264,5.29348 0.852286,2.70432 0.952225,5.14927 0.326011,7.30611 -0.614923,2.19265 -2.050444,3.88144 -4.27552,5.16491 1.464894,0.53228 2.763443,1.18073 3.881205,2.0395 1.093855,0.8669 2.760452,2.43117 4.940357,4.81219 1.817999,1.98866 3.683308,3.93145 5.501308,5.92011 -2.167408,0.73848 -4.334787,1.47704 -6.502494,2.21456 -2.117818,-2.18401 -4.290918,-4.31946 -6.411554,-6.51241 -2.259592,-2.35389 -3.800847,-3.77244 -4.545082,-4.34196 -0.730623,-0.55434 -1.449292,-0.87477 -2.107694,-0.94797 -0.65327,-0.0849 -1.614307,0.11362 -2.857421,0.53697 -0.374418,0.12791 -0.741201,0.25207 -1.107648,0.37727 1.583279,5.02357 3.166493,10.04717 4.749684,15.07078 -1.808869,0.61617 -3.625709,1.23504 -5.44255,1.85392 z M 20.187354,164.7106 c 1.346682,-0.45877 2.685571,-0.91426 4.024073,-1.37098 2.613566,-0.89074 4.202127,-1.58998 4.751635,-2.11429 0.544355,-0.51265 0.90942,-1.20222 1.042237,-2.04073 0.140783,-0.84123 0.0362,-1.81704 -0.305282,-2.90056 -0.380989,-1.20887 -0.935637,-2.1008 -1.648492,-2.71075 -0.72033,-0.57768 -1.549564,-0.80094 -2.496171,-0.69666 -0.463643,0.0688 -1.8034,0.46553 -4.010711,1.21739 -1.418419,0.48313 -2.828986,0.96317 -4.247167,1.44706 0.96524,3.06248 1.927496,6.11608 2.889908,9.16961 z"
             id="path4120"
             transform="matrix(1.063955,0,0,1.0194366,-492.957,-176.72379)" />
          <path
             inkscape:connector-curvature="0"
             style="fill:#bf9266;fill-opacity:1;fill-rule:evenodd;stroke:none"
             d="m 49.508664,139.7235 c 3.826398,-0.63 7.661295,-1.2614 11.487693,-1.8914 2.27883,-0.3752 3.999158,-0.52484 5.15675,-0.47691 1.153315,0.0773 2.239784,0.40424 3.238052,1.07015 0.996872,0.6566 1.888649,1.54045 2.665316,2.75818 0.776668,1.21775 1.306582,2.64789 1.550079,4.2588 0.267426,1.76919 0.145293,3.44031 -0.346585,5.02914 -0.493282,1.57952 -1.350387,2.82767 -2.460827,3.78351 1.845887,0.39274 3.38238,1.27542 4.554128,2.74304 1.173147,1.47693 1.937922,3.25013 2.267279,5.42905 0.258981,1.71333 0.20059,3.40257 -0.149727,5.12079 -0.358813,1.71962 -1.023389,3.14602 -1.907295,4.27452 -0.905184,1.16064 -2.118898,1.95215 -3.631275,2.43974 -0.941144,0.28857 -3.265421,0.76669 -6.960049,1.40363 -3.265192,0.5376 -6.530384,1.0752 -9.787071,1.6114 -1.891691,-12.51481 -3.783377,-25.02959 -5.676473,-37.55369 z m 6.744959,5.30259 c 0.437735,2.8959 0.874061,5.78251 1.311796,8.67841 1.275465,-0.21001 2.533925,-0.4172 3.809392,-0.6272 2.25332,-0.37101 3.657804,-0.64992 4.197832,-0.82475 0.972343,-0.31279 1.694166,-0.89926 2.151273,-1.73799 0.438693,-0.84524 0.581418,-1.86124 0.399849,-3.06245 -0.174528,-1.15464 -0.563278,-2.05451 -1.160556,-2.71964 -0.594462,-0.64649 -1.407481,-0.95163 -2.390851,-0.94242 -0.582363,0.0104 -2.256025,0.2378 -4.977014,0.68583 -1.113909,0.1834 -2.227814,0.36681 -3.341721,0.55021 z m 2.257641,14.93581 c 0.505294,3.34286 1.010588,6.68572 1.517292,10.03791 1.794154,-0.29541 3.579804,-0.58941 5.37396,-0.88481 2.100267,-0.3458 3.40699,-0.63728 3.952767,-0.88939 0.826441,-0.35557 1.466104,-0.96669 1.889256,-1.85709 0.397644,-0.8862 0.520607,-1.97528 0.317926,-3.31616 -0.168896,-1.11739 -0.533548,-2.03078 -1.062741,-2.76437 -0.519285,-0.72569 -1.224461,-1.18218 -2.061639,-1.41653 -0.854185,-0.23156 -2.588644,-0.11777 -5.233108,0.31764 -1.564573,0.25759 -3.129144,0.51519 -4.693713,0.7728 z"
             id="path4122"
             transform="matrix(1.063955,0,0,1.0194366,-492.957,-176.72379)" />
          <path
             inkscape:connector-curvature="0"
             style="fill:#bf9266;fill-opacity:1;fill-rule:evenodd;stroke:none"
             d="m 87.955751,153.4603 c 0.104324,-3.86355 0.791111,-7.10763 2.014425,-9.70522 0.888414,-1.91833 2.166388,-3.60913 3.710649,-5.11347 1.498824,-1.49614 3.201098,-2.57179 5.017974,-3.28597 2.388861,-0.96259 5.169421,-1.35808 8.264871,-1.27344 5.62603,0.15382 10.13277,1.98392 13.38236,5.57138 3.22675,3.59627 4.83701,8.44029 4.66984,14.63139 -0.16589,6.14397 -2.00052,10.86551 -5.41583,14.25189 -3.41606,3.41465 -7.98101,4.99671 -13.58446,4.8435 -5.68252,-0.15536 -10.18926,-1.98545 -13.416768,-5.55345 -3.227507,-3.56801 -4.806162,-8.32629 -4.643061,-14.36661 z m 7.960399,-0.0464 c -0.116283,4.30644 0.812685,7.58527 2.729921,9.8538 1.916449,2.29679 4.439869,3.46912 7.512729,3.55314 3.07286,0.084 5.6671,-0.94839 7.68132,-3.10943 1.98033,-2.16196 3.08563,-5.41346 3.2047,-9.82356 0.11756,-4.35355 -0.78957,-7.60349 -2.60639,-9.82213 -1.83942,-2.21924 -4.38696,-3.33565 -7.57278,-3.42275 -3.17453,-0.0868 -5.79036,0.9073 -7.769675,3.03156 -1.990852,2.13339 -3.061506,5.35755 -3.179825,9.73937 z"
             id="path4124"
             transform="matrix(1.063955,0,0,1.0194366,-492.957,-176.72379)" />
          <path
             inkscape:connector-curvature="0"
             style="fill:#bf9266;fill-opacity:1;fill-rule:evenodd;stroke:none"
             d="m 169.62166,187.55418 c 5.33542,-11.38029 10.67083,-22.76056 16.01021,-34.1493 2.16303,1.1046 4.33587,2.21419 6.4989,3.3188 0.86278,9.90685 1.98851,19.82202 2.85128,29.72887 3.56486,-7.60379 7.12975,-15.20758 10.69463,-22.81136 2.06516,1.05461 4.14012,2.11424 6.20529,3.16885 -5.33939,11.38874 -10.6748,22.76902 -16.01021,34.1493 -2.23155,-1.13958 -4.46311,-2.27918 -6.70444,-3.42376 -0.88159,-9.68557 -2.02217,-19.38795 -2.8998,-29.08199 -3.48153,7.42597 -6.96304,14.85195 -10.44058,22.26944 -2.06516,-1.05462 -4.14011,-2.11424 -6.20528,-3.16885"
             id="path4128"
             transform="matrix(1.063955,0,0,1.0194366,-492.957,-176.72379)" />
          <path
             id="path4170"
             d="m 134.60739,177.12556 c 2.93485,-12.29362 5.86969,-24.58723 8.8067,-36.88999 3.8938,1.02231 7.7876,2.04462 11.68116,3.06791 2.95071,0.77522 5.01229,1.65643 6.1779,2.6721 1.16123,1.03397 1.95693,2.47743 2.34145,4.37667 0.39048,1.91055 0.33618,3.94731 -0.18568,6.13345 -0.65948,2.7624 -1.82318,4.88693 -3.45425,6.36382 -1.63981,1.51349 -3.71678,2.14426 -6.25494,1.99294 0.96785,1.26508 1.73563,2.53593 2.24305,3.88425 0.48303,1.34189 1.0947,3.59241 1.72373,6.81953 0.5231,2.69385 1.10965,5.37519 1.63277,8.06904 -2.21112,-0.58043 -4.42226,-1.16076 -6.63314,-1.74214 -0.67709,-3.0259 -1.42573,-6.04143 -2.10063,-9.07645 -0.71032,-3.24848 -1.29031,-5.30599 -1.62931,-6.20181 -0.33525,-0.8754 -0.7798,-1.54621 -1.29958,-1.9743 -0.50944,-0.43517 -1.42406,-0.80159 -2.69214,-1.13466 -0.38214,-0.1 -0.75591,-0.19889 -1.12992,-0.29673 -1.22499,5.13149 -2.45006,10.26298 -3.67515,15.39445 -1.84526,-0.48453 -3.69866,-0.9712 -5.55207,-1.45787 z m 10.63343,-19.82721 c 1.37381,0.3607 2.73934,0.71983 4.10519,1.07771 2.66639,0.69969 4.36765,0.99141 5.10033,0.85332 0.72238,-0.1311 1.38336,-0.5116 1.92385,-1.14729 0.54863,-0.63357 0.95832,-1.51747 1.22255,-2.62426 0.29479,-1.23484 0.28082,-2.29805 -0.011,-3.21063 -0.31461,-0.88942 -0.90233,-1.53949 -1.75661,-1.97767 -0.42746,-0.19964 -1.76374,-0.60897 -4.01545,-1.20025 -1.44694,-0.37998 -2.88567,-0.75819 -4.3328,-1.13738 -0.74676,3.12829 -1.4915,6.24741 -2.23607,9.36654 z"
             style="fill:#bf9266;fill-opacity:1;fill-rule:evenodd;stroke:none"
             inkscape:connector-curvature="0"
             transform="matrix(1.063955,0,0,1.0194366,-492.957,-176.72379)" />
          <path
             id="path4130"
             d="m 206.37866,206.65 c 7.06816,-10.3005 14.13631,-20.601 21.20973,-30.90916 5.91258,4.41927 11.8181,8.83327 17.73069,13.25255 -1.19906,1.7474 -2.39286,3.48714 -3.58667,5.22689 -4.30006,-3.21402 -8.60012,-6.42804 -12.90019,-9.64206 -1.57246,2.29155 -3.13439,4.56777 -4.70684,6.85933 3.99595,2.98672 7.99897,5.97871 12.00199,8.97071 -1.18855,1.73208 -2.38236,3.47183 -3.5709,5.2039 -4.00301,-2.992 -8.00603,-5.98399 -12.00198,-8.97071 -1.92482,2.80505 -3.84963,5.6101 -5.77444,8.41515 4.44859,3.32503 8.90424,6.65535 13.35283,9.98038 -1.18854,1.73207 -2.38235,3.47182 -3.57089,5.20389 -6.05404,-4.525 -12.12221,-9.06057 -18.18333,-13.59087"
             style="fill:#bf9266;fill-opacity:1;fill-rule:evenodd;stroke:none"
             inkscape:connector-curvature="0"
             transform="matrix(1.0619415,0.06542557,-0.06268802,1.0175073,-481.21539,-189.24325)" />
          <path
             id="path4218"
             d="m -11.163217,624.13775 c 2.0511405,1.04326 4.0821107,2.09931 6.1276507,3.15191 -0.95141,2.35431 -1.15105,4.3946 -0.69996,6.08076 0.4455,1.69547 1.57657,3.12462 3.37303,4.30021 1.90425007,1.24612 3.60827,1.76324 5.12774,1.4836 1.49029,-0.27273 2.60097,-0.97586 3.31292,-2.16092 0.46526,-0.77451 0.6399,-1.54419 0.58103,-2.36269 -0.0937,-0.80226 -0.53416,-1.71451 -1.31149,-2.79517 -0.52906,-0.72321 -1.85545,-2.20216 -3.88717,-4.50668 -2.6438,-2.95204 -4.26152,-5.46661 -4.76562,-7.56444 -0.69094,-2.97407 -0.32339,-5.71045 1.21263,-8.26718 0.99225,-1.65161 2.34838007,-2.90911 4.07061,-3.79704 1.6807,-0.90209 3.55373,-1.14536 5.61226,-0.86423 2.03158,0.26347 4.1724293,1.15744 6.4359693,2.63869 3.67376,2.40407 5.95489,5.10578 6.71432,8.11168 0.75382,3.01521 0.33142,5.98869 -1.36367,9.03932 -2.03217,-1.19984 -4.04974,-2.40313 -6.08751,-3.59364 0.74074,-1.81619 0.907,-3.38434 0.54145,-4.65051 -0.39247,-1.28381 -1.45157,-2.45785 -3.11329,-3.54528 -1.7156193,-1.12268 -3.2928093,-1.62179 -4.7483793,-1.46935 -0.91352,0.10419 -1.6349,0.5551 -2.13382,1.38556 -0.46526,0.77452 -0.5411,1.60886 -0.30258,2.54492 0.3217,1.17249 1.72467,3.06555 4.13932,5.71164 2.4146493,2.6461 4.1219393,4.80329 5.0141093,6.5051 0.87537,1.72979 1.33214,3.51066 1.25475,5.40995 -0.0628,1.89585 -0.70245,3.8562 -1.93575,5.90904 -1.11557,1.8569 -2.6197493,3.27751 -4.5293393,4.28982 -1.895,1.00886 -3.94193,1.33331 -6.11049,1.0062 -2.18536993,-0.29913 -4.55638,-1.33071 -7.08938,-2.98829 -3.7007102,-2.42171 -6.0200607,-5.22644 -6.8379707,-8.42659 -0.82015,-3.17561 -0.40818,-6.71491 1.39863,-10.57639"
             style="fill:#bf9266;fill-opacity:1;fill-rule:evenodd;stroke:none"
             inkscape:connector-curvature="0"
             transform="matrix(1.0619415,0.06542557,-0.06268802,1.0175073,-481.21539,-189.24325)" />
          <path
             id="path4220"
             d="m 27.290798,638.93807 c 1.225477,-3.64808 2.776165,-6.55863 4.59109,-8.68389 1.338319,-1.57607 2.936983,-2.82344 4.709889,-3.82034 1.742905,-1.00786 3.526223,-1.53412 5.291364,-1.7052 2.359186,-0.23388 4.870459,0.18319 7.521759,1.15331 4.812337,1.76086 8.149581,4.80263 9.897213,9.16512 1.727629,4.35518 1.68262,9.43891 -0.290019,15.31119 -1.955185,5.82033 -4.921152,9.80026 -8.869308,12.0553 -3.958631,2.28623 -8.371688,2.48048 -13.154024,0.7306 -4.862362,-1.77915 -8.20309,-4.81053 -9.927701,-9.14126 -1.734608,-4.33439 -1.694017,-9.33804 0.229737,-15.06483 z m 6.873611,2.24666 c -1.368627,4.07422 -1.54166,7.4655 -0.549585,10.19771 0.978583,2.73894 2.81051,4.57633 5.441786,5.53913 2.631285,0.96279 5.151483,0.71785 7.527553,-0.77026 2.356076,-1.49544 4.270418,-4.28459 5.673961,-8.46275 1.38608,-4.12619 1.568653,-7.47898 0.649161,-10.12626 -0.939488,-2.65462 -2.808883,-4.44737 -5.520206,-5.43945 -2.721331,-0.99575 -5.261066,-0.79296 -7.606657,0.6713 -2.345592,1.46426 -4.222944,4.24359 -5.616013,8.39058 z"
             style="fill:#bf9266;fill-opacity:1;fill-rule:evenodd;stroke:none"
             inkscape:connector-curvature="0"
             transform="matrix(1.0619415,0.06542557,-0.06268802,1.0175073,-481.21539,-189.24325)" />
          <path
             id="path4222"
             d="m 93.258209,660.31772 c 2.22277,0.8659 4.467383,1.71046 6.700424,2.5877 -1.141921,4.12795 -2.992972,7.14188 -5.448505,9.08927 -2.466783,1.96906 -5.580112,2.85921 -9.288983,2.7382 -4.598993,-0.15008 -8.35213,-1.98044 -11.161725,-5.56514 -2.809576,-3.58471 -4.19538,-8.31303 -4.015345,-14.32356 0.190241,-6.35178 1.863237,-11.2117 4.904373,-14.6496 3.041473,-3.44891 7.045497,-5.03725 11.877615,-4.87961 4.228124,0.13792 7.652704,1.60502 10.186685,4.47552 1.518852,1.70241 2.657302,4.06458 3.328942,7.13876 -2.317963,0.54145 -4.645521,1.04951 -6.963473,1.59095 -0.333059,-1.98326 -1.155516,-3.56378 -2.413692,-4.76183 -1.24759,-1.19771 -2.820291,-1.81099 -4.685308,-1.87184 -2.575017,-0.084 -4.692587,0.84964 -6.32224,2.84602 -1.639922,1.98502 -2.564388,5.22752 -2.700564,9.77395 -0.144088,4.81062 0.558717,8.26048 2.054457,10.38087 1.495741,2.12037 3.52184,3.17819 6.033268,3.26012 1.865017,0.0609 3.483933,-0.51442 4.858696,-1.79185 1.363839,-1.26677 2.399726,-3.2715 3.055375,-6.03793"
             style="fill:#bf9266;fill-opacity:1;fill-rule:evenodd;stroke:none"
             inkscape:connector-curvature="0"
             transform="matrix(1.0619415,0.06542557,-0.06268802,1.0175073,-481.21539,-189.24325)" />
          <path
             id="path4224"
             d="m 134.15264,658.4175 c 2.33939,0.47141 4.68649,0.91951 7.01679,1.40332 -0.47642,4.26769 -1.82774,7.5581 -3.93275,9.8987 -2.13372,2.36686 -5.06457,3.77887 -8.74207,4.29562 -4.56009,0.64077 -8.5504,-0.52104 -11.88624,-3.57514 -3.33582,-3.05409 -5.4473,-7.48044 -6.21613,-13.44013 -0.81248,-6.29807 0.0725,-11.37886 2.531,-15.2916 2.45707,-3.92367 6.15657,-6.17714 10.94781,-6.8504 4.19236,-0.5891 7.80138,0.27068 10.75289,2.66753 1.76628,1.41878 3.2612,3.55357 4.40776,6.47077 -2.20119,0.93163 -4.41712,1.832 -6.6183,2.76364 -0.64082,-1.89919 -1.70096,-3.31716 -3.13067,-4.28313 -1.41921,-0.96745 -3.06711,-1.30265 -4.91636,-1.0428 -2.55323,0.35877 -4.49499,1.64291 -5.78814,3.89165 -1.30507,2.2393 -1.70642,5.59628 -1.12487,10.10425 0.61535,4.76994 1.8413,8.05383 3.66108,9.88737 1.80927,1.83502 3.96388,2.53244 6.47509,2.17957 1.84926,-0.25986 3.34506,-1.10349 4.48949,-2.59787 1.15633,-1.48494 1.85197,-3.6386 2.07362,-6.48135"
             style="fill:#bf9266;fill-opacity:1;fill-rule:evenodd;stroke:none"
             inkscape:connector-curvature="0"
             transform="matrix(1.0619415,0.06542557,-0.06268802,1.0175073,-481.21539,-189.24325)" />
          <path
             id="path4226"
             d="m 157.89518,669.49921 c -3.3121,-12.23069 -6.62706,-24.47197 -9.94202,-36.71326 8.22304,-2.42554 16.4563,-4.85411 24.68955,-7.28266 0.56256,2.07731 1.12222,4.14403 1.68188,6.21074 -5.98875,1.76649 -11.97749,3.53298 -17.96625,5.29949 0.73476,2.71322 1.4695,5.42644 2.20425,8.13965 5.57043,-1.6431 11.1409,-3.28623 16.71135,-4.92933 0.55967,2.06672 1.11646,4.12281 1.67613,6.18953 -5.57044,1.64312 -11.14091,3.28621 -16.71136,4.92935 0.90123,3.32791 1.80243,6.65587 2.7065,9.99439 6.203,-1.82969 12.39579,-3.65638 18.59878,-5.48609 0.5568,2.05613 1.1136,4.11223 1.67327,6.17895 -8.4373,2.48874 -16.88481,4.98051 -25.32208,7.46924"
             style="fill:#bf9266;fill-opacity:1;fill-rule:evenodd;stroke:none"
             inkscape:connector-curvature="0"
             transform="matrix(1.0619415,0.06542557,-0.06268802,1.0175073,-481.21539,-189.24325)" />
          <path
             id="path4228"
             d="m 199.48779,656.71265 c -5.18591,-11.49978 -10.37632,-23.00952 -15.56673,-34.51925 2.05282,-1.00836 4.10564,-2.01671 6.14886,-3.02035 7.69389,5.65445 15.52061,11.10975 23.21451,16.7642 -3.46478,-7.68312 -6.93403,-15.37622 -10.39879,-23.05934 1.95688,-0.96122 3.91378,-1.92246 5.87067,-2.88369 5.1904,11.50973 10.38081,23.01947 15.56672,34.51925 -2.11038,1.03662 -4.23033,2.07795 -6.34071,3.11458 -7.54586,-5.50806 -15.22963,-10.8023 -22.77549,-16.31036 3.38387,7.50375 6.76775,15.00751 10.15163,22.51125 -1.95688,0.96124 -3.91378,1.92247 -5.87067,2.88371"
             style="fill:#bf9266;fill-opacity:1;fill-rule:evenodd;stroke:none"
             inkscape:connector-curvature="0"
             transform="matrix(1.0619415,0.06542557,-0.06268802,1.0175073,-481.21539,-189.24325)" />
          <path
             id="path4230"
             d="m 246.15827,629.60889 c -6.2052,-8.34371 -12.41041,-16.6874 -18.62208,-25.0398 -2.70518,2.19139 -5.41036,4.38277 -8.10716,6.56738 -1.26174,-1.69658 -2.5235,-3.39317 -3.79171,-5.09845 7.23613,-5.86179 14.48065,-11.73036 21.71678,-17.59216 1.26823,1.70528 2.52997,3.40187 3.79171,5.09845 -2.6968,2.1846 -5.39359,4.36921 -8.09039,6.5538 6.21167,8.35241 12.41688,16.69611 18.62209,25.0398 -1.84254,1.49259 -3.68508,2.98518 -5.51924,4.47098"
             style="fill:#bf9266;fill-opacity:1;fill-rule:evenodd;stroke:none"
             inkscape:connector-curvature="0"
             transform="matrix(1.0619415,0.06542557,-0.06268802,1.0175073,-481.21539,-189.24325)" />
          <text
             transform="matrix(1.041458,0,0,1.0414579,-481.21539,-189.24325)"
             id="text4232"
             style="fill:#bf9266;fill-opacity:1;font-size:15.94316768999999900px;font-style:normal;font-weight:normal;text-align:start;text-anchor:start;font-family:Calibri"
             y="641.8775"
             x="-73.823761"
             xml:space="preserve"> </text>
          <path
             transform="matrix(3.7228365,0,0,3.7228365,-602.70965,-67.73348)"
             id="path3159"
             d="M 59.34375 129 L 53.8125 129.0625 L 52.21875 131.71875 C 55.263216 132.79864 58.260716 132.99253 61.1875 131.71875 L 59.34375 129 z M 56.6875 130.46875 C 57.570829 130.46875 58.28125 130.84875 58.28125 131.3125 C 58.28125 131.77625 57.570829 132.15625 56.6875 132.15625 C 55.804171 132.15625 55.09375 131.77625 55.09375 131.3125 C 55.09375 130.84875 55.804171 130.46875 56.6875 130.46875 z "
             style="fill:#000000;fill-opacity:1;stroke:none" />
          <path
             sodipodi:nodetypes="ccccc"
             inkscape:connector-curvature="0"
             id="path3083"
             d="m -538.3208,145.02376 c -6.06165,9.22615 -12.91712,28.43658 -11.3815,51.02326 l -1.15598,-34.23225 4.3424,-6.98138 z"
             style="fill:#bf9266;fill-opacity:1;stroke:none" />
        </g>
      </g>
    </g>
  </g>
</svg>
